<?xml version="1.0" encoding="UTF-8" standalone="no"?>
<!-- Created with Inkscape (http://www.inkscape.org/) -->

<svg
   width="93.810562mm"
   height="69.543953mm"
   viewBox="0 0 93.810562 69.543953"
   version="1.1"
   id="svg5"
   inkscape:version="1.1.2 (0a00cf5339, 2022-02-04)"
   sodipodi:docname="crop_a.svg"
   xmlns:inkscape="http://www.inkscape.org/namespaces/inkscape"
   xmlns:sodipodi="http://sodipodi.sourceforge.net/DTD/sodipodi-0.dtd"
   xmlns="http://www.w3.org/2000/svg"
   xmlns:svg="http://www.w3.org/2000/svg">
  <sodipodi:namedview
     id="namedview7"
     pagecolor="#ffffff"
     bordercolor="#666666"
     borderopacity="1.0"
     inkscape:pageshadow="2"
     inkscape:pageopacity="0.0"
     inkscape:pagecheckerboard="0"
     inkscape:document-units="mm"
     showgrid="false"
     fit-margin-top="0"
     fit-margin-left="0"
     fit-margin-right="0"
     fit-margin-bottom="0"
     inkscape:zoom="1.2810466"
     inkscape:cx="301.70643"
     inkscape:cy="61.278021"
     inkscape:window-width="2490"
     inkscape:window-height="1536"
     inkscape:window-x="70"
     inkscape:window-y="27"
     inkscape:window-maximized="1"
     inkscape:current-layer="layer1" />
  <defs
     id="defs2" />
  <g
     inkscape:label="Vrstva 1"
     inkscape:groupmode="layer"
     id="layer1"
     transform="translate(-20.52258,-37.589921)">
    <path
       style="fill:#000000;stroke-width:0.0846667"
       d="m 41.477477,107.11579 c -0.1397,-0.0186 -0.61595,-0.0753 -1.058334,-0.126 -7.307116,-0.83805 -14.057099,-5.69988 -17.436243,-12.55885 -1.693623,-3.437708 -2.460586,-6.748348 -2.46032,-10.620111 3.6e-4,-5.229927 1.62946,-10.113361 4.761123,-14.272067 0.844906,-1.121998 2.933681,-3.358673 4.008365,-4.292186 3.221382,-2.798221 7.095459,-4.601097 11.241879,-5.231625 4.153821,-0.631653 5.933004,-0.767451 15.633196,-1.193216 4.178586,-0.183407 6.05333,-0.360833 9.016999,-0.853367 10.599446,-1.761527 17.535668,-4.337726 34.501669,-12.814344 3.829229,-1.913175 7.901919,-4.070879 12.445999,-6.59386 1.75477,-0.974294 1.91668,-1.047303 2.05316,-0.925828 0.0815,0.07253 0.14817,0.167234 0.14817,0.210452 0,0.158579 -6.86432,7.610142 -10.25282,11.129965 -2.69653,2.801019 -7.820239,7.65373 -13.391859,12.683546 -1.23798,1.1176 -2.25368,2.052215 -2.2571,2.076922 -0.003,0.02471 0.63196,-0.06046 1.41195,-0.189263 6.68219,-1.103443 10.748199,-1.50946 15.388159,-1.536608 2.24469,-0.01313 2.58304,0.03748 2.65222,0.396727 0.0639,0.331682 -0.24343,0.515777 -5.15209,3.086457 -4.830669,2.529836 -6.460119,3.528787 -10.919789,6.694506 -3.02555,2.147699 -4.98697,3.611756 -8.32567,6.214512 -5.938095,4.629171 -7.068777,5.71287 -11.15214,10.688748 -2.101949,2.561377 -6.264447,7.388665 -7.496052,8.69324 -4.325988,4.5823 -9.229061,7.65323 -14.038583,8.79277 -2.024513,0.47967 -2.533907,0.5273 -5.892889,0.55091 -1.74625,0.0123 -3.2893,0.007 -3.429,-0.0114 z m 5.778499,-10.842768 4.7625,-0.05612 v -6.99188 -6.991881 l -3.11107,-3.111923 -3.111071,-3.111924 h -5.04558 c -2.775069,0 -5.908987,0.02513 -6.964262,0.05584 l -1.918683,0.05584 v 2.724159 c 0,1.498287 0.02533,6.04516 0.05628,10.104162 l 0.05628,7.380002 5.256549,-8.2e-5 c 2.891103,-4.5e-5 7.399675,-0.02533 10.019049,-0.0562 z M 38.21781,86.17018 v -3.810881 h 3.717186 3.717186 l 0.05538,0.867834 c 0.03046,0.477308 0.04365,2.182283 0.02931,3.788833 l -0.02606,2.921001 -3.7465,0.02205 -3.7465,0.02205 z"
       id="path854"
       sodipodi:nodetypes="ccssssssssssssscsscsssssscccccccccsscsscsscccccsscccc" />
  </g>
</svg>
